<svg width="32" height="24" viewBox="0 0 32 24" fill="none" xmlns="http://www.w3.org/2000/svg">
<g clip-path="url(#clip0_992_11522)">
<path d="M0 0H32V24H0V0Z" fill="#00ABC2"/>
<path d="M17.29 13.3103C19.0741 13.3103 20.5204 11.864 20.5204 10.0799C20.5204 8.29579 19.0741 6.84949 17.29 6.84949C15.5059 6.84949 14.0596 8.29579 14.0596 10.0799C14.0596 11.864 15.5059 13.3103 17.29 13.3103Z" fill="#FFEC2D"/>
<path d="M17.2899 6.41028C17.4819 6.40788 17.5539 6.28788 17.5539 6.14388C17.5539 5.95188 17.2899 5.03748 17.2899 5.03748C17.2899 5.03748 17.0259 5.95188 17.0259 6.14388C17.0259 6.28788 17.0979 6.41028 17.2899 6.41028Z" fill="#FFEC2D"/>
<path d="M20.9595 10.0799C20.9619 10.2719 21.0819 10.3439 21.2259 10.3439C21.4179 10.3439 22.3323 10.0799 22.3323 10.0799C22.3323 10.0799 21.4179 9.81592 21.2259 9.81592C21.0819 9.81592 20.9595 9.88792 20.9595 10.0799Z" fill="#FFEC2D"/>
<path d="M17.29 13.7495C17.098 13.7519 17.026 13.8719 17.026 14.0159C17.026 14.2079 17.29 15.1223 17.29 15.1223C17.29 15.1223 17.554 14.2079 17.554 14.0159C17.554 13.8719 17.482 13.7495 17.29 13.7495Z" fill="#FFEC2D"/>
<path d="M13.6204 10.0799C13.618 9.88787 13.498 9.81587 13.354 9.81587C13.162 9.81587 12.2476 10.0799 12.2476 10.0799C12.2476 10.0799 13.162 10.3439 13.354 10.3439C13.498 10.3439 13.6204 10.2719 13.6204 10.0799Z" fill="#FFEC2D"/>
<path d="M18.6941 6.68964C18.8724 6.7609 18.9849 6.67759 19.04 6.54455C19.1135 6.36716 19.2195 5.42134 19.2195 5.42134C19.2195 5.42134 18.6257 6.16511 18.5522 6.34249C18.4971 6.47553 18.5168 6.61617 18.6941 6.68964Z" fill="#FFEC2D"/>
<path d="M20.6802 11.4842C20.609 11.6625 20.6923 11.7749 20.8253 11.83C21.0027 11.9035 21.9485 12.0095 21.9485 12.0095C21.9485 12.0095 21.2048 11.4157 21.0274 11.3422C20.8943 11.2871 20.7537 11.3068 20.6802 11.4842Z" fill="#FFEC2D"/>
<path d="M15.8857 13.4701C15.7074 13.3989 15.5949 13.4822 15.5398 13.6152C15.4664 13.7926 15.3603 14.7384 15.3603 14.7384C15.3603 14.7384 15.9542 13.9947 16.0276 13.8173C16.0828 13.6843 16.0631 13.5436 15.8857 13.4701Z" fill="#FFEC2D"/>
<path d="M13.8996 8.67561C13.9709 8.49731 13.8875 8.38486 13.7545 8.32976C13.5771 8.25628 12.6313 8.15026 12.6313 8.15026C12.6313 8.15026 13.3751 8.74409 13.5525 8.81757C13.6855 8.87267 13.8261 8.85299 13.8996 8.67561Z" fill="#FFEC2D"/>
<path d="M19.8849 7.48503C20.0224 7.6191 20.1581 7.58516 20.26 7.48333C20.3957 7.34757 20.8556 6.51431 20.8556 6.51431C20.8556 6.51431 20.0224 6.97422 19.8866 7.10998C19.7848 7.2118 19.7491 7.34926 19.8849 7.48503Z" fill="#FFEC2D"/>
<path d="M19.8848 12.6747C19.7508 12.8122 19.7847 12.9479 19.8865 13.0497C20.0223 13.1855 20.8556 13.6454 20.8556 13.6454C20.8556 13.6454 20.3957 12.8122 20.2599 12.6764C20.1581 12.5746 20.0206 12.5389 19.8848 12.6747Z" fill="#FFEC2D"/>
<path d="M14.6952 12.6746C14.5577 12.5406 14.4219 12.5745 14.3201 12.6763C14.1844 12.8121 13.7245 13.6454 13.7245 13.6454C13.7245 13.6454 14.5577 13.1855 14.6935 13.0497C14.7953 12.9479 14.8309 12.8104 14.6952 12.6746Z" fill="#FFEC2D"/>
<path d="M14.6952 7.48509C14.8293 7.34763 14.7954 7.21186 14.6935 7.11004C14.5578 6.97428 13.7245 6.51437 13.7245 6.51437C13.7245 6.51437 14.1844 7.34763 14.3202 7.48339C14.422 7.58522 14.5595 7.62085 14.6952 7.48509Z" fill="#FFEC2D"/>
<path d="M20.6801 8.67562C20.7558 8.85209 20.8942 8.87269 21.0273 8.81758C21.2047 8.74411 21.9484 8.15028 21.9484 8.15028C21.9484 8.15028 21.0026 8.2563 20.8252 8.32977C20.6922 8.38488 20.6067 8.49824 20.6801 8.67562Z" fill="#FFEC2D"/>
<path d="M18.6941 13.4702C18.5177 13.5459 18.4971 13.6843 18.5522 13.8173C18.6256 13.9947 19.2195 14.7385 19.2195 14.7385C19.2195 14.7385 19.1135 13.7927 19.04 13.6153C18.9849 13.4822 18.8715 13.3967 18.6941 13.4702Z" fill="#FFEC2D"/>
<path d="M13.8997 11.4842C13.824 11.3077 13.6856 11.2871 13.5525 11.3422C13.3752 11.4157 12.6314 12.0095 12.6314 12.0095C12.6314 12.0095 13.5772 11.9035 13.7546 11.83C13.8876 11.7749 13.9732 11.6616 13.8997 11.4842Z" fill="#FFEC2D"/>
<path d="M15.8855 6.68961C16.0619 6.61392 16.0825 6.4755 16.0274 6.34246C15.9539 6.16508 15.3601 5.42131 15.3601 5.42131C15.3601 5.42131 15.4661 6.36713 15.5396 6.54452C15.5947 6.67756 15.7081 6.76309 15.8855 6.68961Z" fill="#FFEC2D"/>
<path d="M18.0092 6.48141C18.1979 6.51668 18.292 6.41312 18.3203 6.27191C18.3579 6.08363 18.2782 5.13523 18.2782 5.13523C18.2782 5.13523 17.8401 5.98017 17.8025 6.16845C17.7743 6.30966 17.8209 6.44379 18.0092 6.48141Z" fill="#FFEC2D"/>
<path d="M20.8885 10.799C20.8532 10.9877 20.9568 11.0818 21.098 11.1101C21.2862 11.1477 22.2346 11.068 22.2346 11.068C22.2346 11.068 21.3897 10.6299 21.2014 10.5923C21.0602 10.5641 20.9261 10.6107 20.8885 10.799Z" fill="#FFEC2D"/>
<path d="M16.5711 13.6784C16.3824 13.6431 16.2883 13.7467 16.2601 13.8879C16.2224 14.0762 16.3022 15.0246 16.3022 15.0246C16.3022 15.0246 16.7402 14.1796 16.7778 13.9913C16.806 13.8501 16.7594 13.716 16.5711 13.6784Z" fill="#FFEC2D"/>
<path d="M13.6916 9.36082C13.7269 9.17207 13.6233 9.07795 13.4821 9.04974C13.2938 9.01212 12.3454 9.09183 12.3454 9.09183C12.3454 9.09183 13.1904 9.52988 13.3787 9.5675C13.5199 9.59572 13.654 9.5491 13.6916 9.36082Z" fill="#FFEC2D"/>
<path d="M19.3314 7.03056C19.4923 7.13537 19.6189 7.07571 19.699 6.95605C19.8058 6.7965 20.0951 5.88978 20.0951 5.88978C20.0951 5.88978 19.3671 6.50277 19.2602 6.66232C19.1801 6.78198 19.1719 6.92375 19.3314 7.03056Z" fill="#FFEC2D"/>
<path d="M20.3396 12.1213C20.2347 12.2822 20.2944 12.4088 20.4141 12.4889C20.5736 12.5957 21.4803 12.885 21.4803 12.885C21.4803 12.885 20.8673 12.157 20.7078 12.0502C20.5881 11.9701 20.4464 11.9618 20.3396 12.1213Z" fill="#FFEC2D"/>
<path d="M15.2486 13.1294C15.0878 13.0245 14.9612 13.0842 14.8811 13.2039C14.7743 13.3634 14.485 14.2701 14.485 14.2701C14.485 14.2701 15.213 13.6571 15.3198 13.4976C15.3999 13.3779 15.4082 13.2362 15.2486 13.1294Z" fill="#FFEC2D"/>
<path d="M14.2408 8.03857C14.3456 7.87768 14.2859 7.75109 14.1663 7.67099C14.0067 7.56418 13.1 7.27488 13.1 7.27488C13.1 7.27488 13.713 8.00294 13.8725 8.10975C13.9922 8.18985 14.134 8.19811 14.2408 8.03857Z" fill="#FFEC2D"/>
<path d="M20.343 8.04395C20.4515 8.20235 20.5913 8.19567 20.7111 8.11577C20.8708 8.00924 21.4851 7.28226 21.4851 7.28226C21.4851 7.28226 20.5779 7.56997 20.4181 7.6765C20.2983 7.7564 20.2365 7.88421 20.343 8.04395Z" fill="#FFEC2D"/>
<path d="M19.326 13.1329C19.1676 13.2414 19.1743 13.3812 19.2542 13.501C19.3608 13.6608 20.0877 14.275 20.0877 14.275C20.0877 14.275 19.8 13.3678 19.6935 13.2081C19.6136 13.0883 19.4858 13.0264 19.326 13.1329Z" fill="#FFEC2D"/>
<path d="M14.2371 12.116C14.1286 11.9576 13.9888 11.9642 13.869 12.0441C13.7092 12.1507 13.095 12.8777 13.095 12.8777C13.095 12.8777 14.0022 12.5899 14.1619 12.4834C14.2817 12.4035 14.3436 12.2757 14.2371 12.116Z" fill="#FFEC2D"/>
<path d="M15.2538 7.027C15.4122 6.91847 15.4055 6.77869 15.3256 6.65889C15.2191 6.49915 14.4921 5.88489 14.4921 5.88489C14.4921 5.88489 14.7798 6.79211 14.8863 6.95185C14.9662 7.07165 15.0941 7.13353 15.2538 7.027Z" fill="#FFEC2D"/>
<path d="M20.8899 9.36717C20.9296 9.55505 21.0613 9.60237 21.2025 9.5744C21.3909 9.53711 22.2366 9.10052 22.2366 9.10052C22.2366 9.10052 21.2883 9.01916 21.1 9.05645C20.9587 9.08442 20.8526 9.17883 20.8899 9.36717Z" fill="#FFEC2D"/>
<path d="M18.0029 13.6797C17.8151 13.7194 17.7677 13.8511 17.7957 13.9923C17.833 14.1807 18.2696 15.0264 18.2696 15.0264C18.2696 15.0264 18.351 14.0781 18.3137 13.8898C18.2857 13.7485 18.1913 13.6424 18.0029 13.6797Z" fill="#FFEC2D"/>
<path d="M13.6904 10.7927C13.6507 10.6049 13.5191 10.5575 13.3778 10.5855C13.1894 10.6228 12.3437 11.0594 12.3437 11.0594C12.3437 11.0594 13.292 11.1408 13.4803 11.1035C13.6216 11.0755 13.7277 10.9811 13.6904 10.7927Z" fill="#FFEC2D"/>
<path d="M16.5774 6.48019C16.7653 6.44054 16.8126 6.30885 16.7846 6.16759C16.7473 5.97924 16.3107 5.13354 16.3107 5.13354C16.3107 5.13354 16.2294 6.0818 16.2667 6.27014C16.2946 6.4114 16.389 6.51749 16.5774 6.48019Z" fill="#FFEC2D"/>
<path d="M17.1792 15.7199C17.0952 15.8711 17.0448 16.0463 16.9392 16.1831C16.6128 15.8879 16.1424 15.8951 15.7296 15.8783C15.3888 15.8591 15.0192 15.8279 14.7552 15.5855C14.4792 15.3575 14.2512 15.0647 13.944 14.8799C13.6553 14.8178 13.3839 14.6924 13.1496 14.5127C12.6648 14.1167 12.3864 13.5287 11.9112 13.1207C11.8224 13.0343 11.7144 12.9647 11.6136 12.8903C11.5176 12.9143 11.5608 13.1207 11.4432 13.0151C11.3784 12.9671 11.2176 12.9647 11.2032 13.0295C11.3472 13.2215 11.4936 13.4375 11.5152 13.6823C11.4144 13.6919 11.2392 13.6607 11.1912 13.6967C11.323 13.8946 11.4888 14.0676 11.6808 14.2079C11.5896 14.2223 11.4096 14.2151 11.3736 14.2511C11.5532 14.4232 11.7751 14.5449 12.0168 14.6039C12.0648 14.6711 11.9424 14.8007 12.048 14.8583C12.108 14.8823 12.3096 14.9255 12.1704 14.9951C12.0744 15.0575 12.1104 15.2087 12.2328 15.2039C12.3096 15.2447 12.4824 15.2519 12.4968 15.3239C12.4272 15.3911 12.216 15.4727 12.396 15.5399C12.5657 15.6361 12.7555 15.6912 12.9504 15.7007C12.8544 15.7823 12.7344 15.8279 12.636 15.9047C13.08 16.1663 13.572 16.3367 14.0616 16.5047C14.2536 16.5671 14.4528 16.6271 14.6544 16.6655C14.0688 16.6319 13.5024 16.4591 12.9696 16.2215C12.6936 16.1015 12.4176 15.9839 12.1344 15.8807C12.2568 15.8159 12.4008 15.7991 12.5304 15.7439C12.2616 15.6911 11.9712 15.6719 11.7384 15.5279C11.772 15.4607 11.9064 15.4583 11.9832 15.4247C12.1272 15.3911 12.2136 15.3527 12.0144 15.3383C11.8128 15.2831 11.5824 15.3071 11.4024 15.1871C11.4144 15.1151 11.6016 15.1391 11.676 15.1079C11.772 15.0911 11.8776 15.0767 11.9544 15.0119C11.6424 14.8847 11.2344 14.9759 10.9896 14.6999C10.9344 14.5943 11.1648 14.6783 11.2296 14.6615C11.3976 14.6615 11.5776 14.7143 11.7384 14.6471C11.2824 14.4479 10.7952 14.2631 10.4496 13.8935C10.4112 13.8335 10.296 13.6703 10.3896 13.6511C10.6584 13.6871 10.8528 13.9799 11.1432 13.9343C11.1816 13.8839 10.9752 13.7999 10.9224 13.7255C10.4882 13.3767 10.1095 12.964 9.79916 12.5015C9.77996 12.3407 10.0272 12.3167 10.092 12.4391C10.4136 12.7511 10.704 13.1111 11.1048 13.3223C11.2488 13.3919 11.0232 13.2407 10.9944 13.1855C10.6132 12.7629 10.2836 12.2965 10.0128 11.7959C9.96476 11.7047 9.89036 11.5391 10.0296 11.4911C10.1664 11.4215 10.3056 11.5151 10.3752 11.6351C10.6464 11.9783 10.848 12.3863 11.1864 12.6719C10.8984 12.1127 10.5888 11.5199 10.5816 10.8767C10.5888 10.7519 10.596 10.5647 10.7664 10.5671C10.9104 10.5455 10.8864 10.7279 10.9344 10.8143C11.0736 11.2895 11.1336 11.8031 11.4144 12.2207C11.3544 11.8703 11.2608 11.5079 11.3232 11.1503C11.3376 11.0303 11.4672 10.9967 11.556 11.0687C11.6256 11.2367 11.64 11.4503 11.7024 11.6327C12.0764 12.8751 12.8639 13.9523 13.9344 14.6855C14.8108 15.2853 15.8335 15.6361 16.8936 15.7007C16.9896 15.7103 17.0856 15.7127 17.1792 15.7175M20.4528 17.9039C20.28 18.0095 20.1456 17.8223 20.0016 17.7671C19.896 17.8247 19.8864 18.0119 19.7904 18.1031C19.6752 18.2351 19.5312 18.0647 19.5432 17.9351C19.404 18.0527 19.3344 18.3191 19.1112 18.2807C19.0032 18.1943 18.924 18.0119 18.8424 18.2207C18.7776 18.3215 18.6024 18.4655 18.5088 18.3119C18.48 18.1775 18.4128 18.0191 18.3408 18.2327C18.288 18.3863 18.1248 18.4967 17.9712 18.4295C17.8848 18.3599 18.0384 18.1007 17.9304 18.1175C17.7672 18.2279 17.6712 18.4943 17.4432 18.4727C17.3544 18.3767 17.4984 18.2063 17.4 18.0959C17.2872 18.2423 17.16 18.4583 16.9608 18.4727C16.8648 18.3959 16.9656 18.1727 16.9032 18.1415C16.7016 18.2615 16.4856 18.4799 16.2312 18.4127C16.3296 18.0287 16.7472 17.8967 17.0952 17.8679C17.6976 17.7935 18.3312 17.9303 18.912 17.7119C19.0056 17.6543 19.2312 17.5751 19.152 17.4431C19.08 17.3375 19.3368 17.3783 19.3608 17.2559C19.3464 17.1023 19.4808 17.1239 19.6104 17.1119C20.196 17.0855 20.7744 17.2079 21.3576 17.2295C21.4008 17.5127 21.0864 17.7119 20.8296 17.6255C20.7096 17.6447 20.5296 17.3471 20.5656 17.5631C20.5416 17.6783 20.556 17.8271 20.4528 17.9039ZM15.4752 17.3231C15.6096 17.4455 15.7056 17.2991 15.8328 17.2439C16.2481 17.0813 16.6384 16.8607 16.992 16.5887C17.2128 16.4063 17.4048 16.1687 17.7024 16.1087C18.2832 15.9335 18.9 15.9551 19.4808 15.7919C19.9248 15.1871 20.676 14.9687 21.3072 14.6207C21.4488 14.5775 21.504 14.4599 21.5472 14.3327C21.7872 13.9511 22.116 13.6151 22.5048 13.3847C22.6883 13.2764 22.9045 13.2372 23.1144 13.2743C23.0854 13.5192 22.9686 13.7452 22.7856 13.9103C22.9272 13.9079 23.0496 13.8191 23.1888 13.8239C23.2368 14.0783 22.9632 14.2103 22.8168 14.3687C22.8984 14.3879 23.2104 14.4119 23.04 14.4935C22.824 14.6423 22.5768 14.7455 22.3776 14.9207C22.5624 14.9543 22.584 14.9927 22.3968 15.0599C22.2936 15.1271 22.0992 15.1511 22.08 15.2855C22.2192 15.3719 22.0176 15.4535 21.9384 15.4823C21.7896 15.5183 21.6312 15.5831 21.8304 15.6983C21.756 15.8111 21.5928 15.8351 21.4608 15.8231C21.5016 15.9527 21.5592 16.0967 21.3936 16.1543C21.0221 16.448 20.5771 16.634 20.1072 16.6919C20.6952 16.7351 21.3024 16.6271 21.804 16.3079C21.8712 16.2287 22.2192 16.1423 22.0248 16.0775C21.9336 16.0391 21.7368 15.9959 21.7224 15.9263C21.996 15.7583 22.3392 15.8183 22.632 15.7199C22.6392 15.6239 22.4088 15.6503 22.3224 15.6287C22.1184 15.6119 22.1304 15.5591 22.3272 15.5399C22.5768 15.4727 22.86 15.4607 23.0712 15.2999C22.9008 15.2183 22.6848 15.2879 22.5024 15.2231C22.812 15.0887 23.1768 15.0743 23.4552 14.8703C23.5824 14.7287 23.292 14.7743 23.208 14.7767C23.0376 14.8079 22.9584 14.7239 23.1528 14.6543C23.4864 14.4071 23.9064 14.2487 24.1416 13.8935C24.1968 13.8143 24.2712 13.5743 24.0936 13.6583C23.8632 13.7375 23.6592 13.9967 23.3928 13.9175C23.916 13.5119 24.4104 13.0535 24.768 12.4943C24.7872 12.3311 24.5328 12.3143 24.468 12.4415C24.132 12.7631 23.8296 13.1447 23.4 13.3487C23.8049 12.9439 24.1565 12.489 24.4464 11.9951C24.5112 11.8511 24.6816 11.6759 24.5904 11.5151C24.4392 11.3903 24.252 11.5055 24.1752 11.6519C23.9136 11.9927 23.7168 12.3887 23.3832 12.6671C23.6736 12.1079 23.9784 11.5103 23.9832 10.8671C23.9832 10.7327 23.9592 10.5359 23.7768 10.5623C23.6328 10.5863 23.6688 10.8023 23.6088 10.9103C23.4792 11.3519 23.4168 11.8295 23.1528 12.2135C23.2128 11.8559 23.316 11.4815 23.2368 11.1215C23.1984 10.9583 22.9368 11.0279 22.9728 11.1887C22.6608 12.7703 21.5976 14.1527 20.2128 14.9519C19.5768 15.3119 18.8688 15.5423 18.144 15.6479C17.952 15.6887 17.7408 15.6647 17.556 15.7319C17.1048 16.0751 16.8336 16.6535 16.2648 16.8335C16.008 16.9607 15.6768 16.9871 15.4944 17.2223C15.4796 17.2538 15.473 17.2885 15.4752 17.3231ZM16.716 17.0759C16.6296 17.0807 16.5456 17.0903 16.4616 17.1167C16.3488 17.1335 16.2408 17.1719 16.1304 17.1887L16.0848 17.1983L16.0104 17.2055C16.02 17.2458 16.02 17.2877 16.0104 17.3279C16.0026 17.3461 15.9911 17.3624 15.9768 17.3759C15.9624 17.3951 15.9456 17.4095 15.924 17.4191C15.9044 17.4287 15.8832 17.4344 15.8616 17.4359C15.84 17.4359 15.8184 17.4359 15.7968 17.4263C15.7752 17.4191 15.756 17.4071 15.7368 17.3903L15.6696 17.4023H15.6072L15.54 17.3783C15.5183 17.3698 15.4974 17.3594 15.4776 17.3471C15.396 17.3951 15.3048 17.4407 15.2544 17.5247C15.2309 17.5632 15.2177 17.607 15.216 17.6519C15.2112 17.7095 15.2256 17.7671 15.2496 17.8199C15.2592 17.8343 15.2664 17.7647 15.2928 17.7551C15.3384 17.7167 15.396 17.6903 15.4536 17.6759C15.5016 17.6519 15.4944 17.6759 15.4752 17.7143C15.4704 17.7359 15.444 17.8103 15.48 17.7719C15.6459 17.7099 15.8212 17.6767 15.9984 17.6735C16.2528 17.6471 16.5072 17.6399 16.7616 17.6375L17.4816 17.6519C17.5968 17.6567 17.712 17.6807 17.8248 17.6615C17.8512 17.6543 17.8944 17.6543 17.9112 17.6375C17.8584 17.6087 17.7984 17.6063 17.7432 17.5991H17.2848C17.1576 17.5871 17.0256 17.5847 16.9056 17.5367C16.872 17.5247 16.8432 17.4935 16.812 17.5271C16.7663 17.5435 16.7187 17.5539 16.6704 17.5583C16.5864 17.5631 16.5024 17.5463 16.4256 17.5151C16.4808 17.4383 16.548 17.3711 16.6104 17.2991L16.4616 17.2679C16.5504 17.2079 16.6296 17.1383 16.716 17.0759Z" fill="#FFEC2D"/>
<path d="M15.8401 17.3591C15.8719 17.3591 15.8977 17.3333 15.8977 17.3015C15.8977 17.2697 15.8719 17.2439 15.8401 17.2439C15.8083 17.2439 15.7825 17.2697 15.7825 17.3015C15.7825 17.3333 15.8083 17.3591 15.8401 17.3591Z" fill="#FFEC2D"/>
<path d="M15.835 17.3159C15.8483 17.3159 15.859 17.3052 15.859 17.2919C15.859 17.2787 15.8483 17.2679 15.835 17.2679C15.8218 17.2679 15.811 17.2787 15.811 17.2919C15.811 17.3052 15.8218 17.3159 15.835 17.3159Z" fill="#FFEC2D" stroke="#FFEC2D" stroke-width="0.192"/>
<path d="M2.88006 1.75195C2.88006 1.75195 2.64966 1.55515 2.57046 1.65355C2.44566 1.80955 2.95926 2.58955 2.95926 2.86315C2.95926 3.31435 2.65686 3.43675 2.28726 3.49915C2.03766 3.54235 1.63206 3.48235 1.63206 3.48235C1.70886 3.37915 1.75926 3.34795 1.88646 3.34075C1.74246 3.26875 1.59846 3.10555 1.59846 2.85355C1.59846 2.46715 1.75686 2.30635 1.75686 1.86955C1.75686 1.63195 1.56006 1.31995 1.56006 1.31995C1.91046 1.35595 2.08326 1.67995 1.98486 1.93915C2.01187 1.94452 2.03978 1.94317 2.06615 1.93522C2.09252 1.92727 2.11652 1.91296 2.13606 1.89355C2.16006 1.96555 2.12166 2.04955 2.06646 2.12155C2.10966 2.14555 2.14326 2.13115 2.21046 2.11675C2.20566 2.18875 2.16246 2.27035 2.05206 2.34475C2.36886 2.26315 2.56086 2.48155 2.56086 2.71195C2.56086 2.88715 2.44086 3.01195 2.32086 3.01195C2.28246 3.01195 2.22486 2.99515 2.19366 2.97115C2.16966 3.01915 2.18406 3.08395 2.20566 3.13195C2.11926 3.10795 2.06166 3.05515 2.10246 2.94715C2.03526 2.94235 1.98246 2.91835 1.94646 2.87515C1.98246 2.82715 2.03766 2.80315 2.10246 2.80315C2.05446 2.70235 2.10966 2.64715 2.18886 2.60155C2.18886 2.60155 2.13846 2.80315 2.26566 2.80315C2.32326 2.80315 2.37606 2.78635 2.37606 2.69995C2.37606 2.62555 2.31126 2.52235 2.16006 2.52955C2.01126 2.53675 1.88886 2.63275 1.88886 2.87275C1.88886 3.09355 2.06886 3.20395 2.30406 3.20875C2.51526 3.21835 2.67606 3.10315 2.67606 2.88475C2.67606 2.59195 2.25606 1.92955 2.25606 1.67035C2.25606 1.47595 2.42886 1.36555 2.60166 1.36555C2.82246 1.36555 3.00966 1.58635 3.00966 1.58635L2.88006 1.74955V1.75195Z" fill="#FFEC2D"/>
<path d="M2.92794 7.0104C2.92794 7.4976 2.49114 7.7472 2.14794 7.7472C1.68714 7.7472 1.43994 7.4712 1.43994 7.1088C1.43994 6.9048 1.47834 6.7752 1.57194 6.5808L2.63274 4.38C2.67117 4.28743 2.6876 4.1872 2.68074 4.0872C2.68074 3.8904 2.48874 3.7296 2.28954 3.7272C2.10714 3.72 1.90554 3.8952 1.90554 4.0944C1.90554 4.3368 2.03274 4.4448 2.16234 4.4448C2.32074 4.4448 2.38314 4.38 2.38314 4.2672C2.38314 4.1904 2.34714 4.1568 2.29194 4.1568C2.15514 4.1568 2.19594 4.3392 2.19594 4.3392C2.17788 4.33586 2.16077 4.32857 2.14585 4.31786C2.13093 4.30715 2.11856 4.29327 2.10962 4.27722C2.10068 4.26118 2.09539 4.24335 2.09413 4.22503C2.09287 4.2067 2.09568 4.18832 2.10234 4.1712C2.05097 4.15968 2.00468 4.13191 1.97034 4.092C2.00634 4.056 2.04954 4.0296 2.10234 4.02C2.07114 3.9144 2.11434 3.864 2.20554 3.84C2.18913 3.87608 2.18492 3.91652 2.19354 3.9552C2.33754 3.912 2.56074 3.9792 2.56074 4.2288C2.56074 4.4784 2.38794 4.6872 2.06394 4.6368C2.14074 4.6728 2.17914 4.7472 2.18874 4.8312C2.12874 4.8072 2.06394 4.8072 2.06394 4.8072C2.10234 4.872 2.15514 4.9272 2.15274 5.0616C2.09274 5.0328 2.03514 4.9824 1.96074 5.0136C2.08074 5.2536 1.93194 5.58 1.55274 5.6568C1.69194 5.4936 1.75914 5.3208 1.75914 5.1456C1.75914 4.5816 1.60314 4.488 1.60314 4.0944C1.60561 4.00312 1.62975 3.91373 1.67356 3.83361C1.71738 3.75349 1.77962 3.68493 1.85514 3.6336V3.6408C1.8087 3.63126 1.7648 3.61201 1.72633 3.58429C1.68786 3.55658 1.65569 3.52104 1.63194 3.48C1.8993 3.40631 2.18193 3.40881 2.44794 3.4872C2.53692 3.49979 2.62193 3.53221 2.69671 3.58205C2.77148 3.6319 2.8341 3.69791 2.87994 3.7752C2.92786 3.88454 2.9526 4.00262 2.9526 4.122C2.9526 4.24138 2.92786 4.35946 2.87994 4.4688C2.72874 4.7808 2.02314 6.2832 1.80234 6.7536C1.75434 6.8544 1.72794 6.96 1.72794 7.0752C1.72794 7.3632 1.99194 7.464 2.14074 7.464C2.32074 7.464 2.50554 7.3272 2.50554 7.1568C2.50554 7.0488 2.44554 6.9816 2.36154 6.9816C2.15754 6.9816 2.16954 7.1544 2.21034 7.2648C2.08314 7.2072 2.01114 7.1064 2.03034 7.0008C1.95159 6.98758 1.88012 6.94674 1.82874 6.8856C1.87674 6.8232 1.93914 6.7752 2.03034 6.7728C1.98954 6.6072 2.10234 6.5376 2.21034 6.4992C2.17674 6.6192 2.15274 6.7608 2.36154 6.7608C2.51274 6.7608 2.63034 6.7848 2.69994 6.8856L2.71674 6.2376C2.72634 6.0432 2.45754 6.0456 2.28474 6.1056C2.34954 5.8824 2.48154 5.76 2.78874 5.7912C2.74168 5.7731 2.70151 5.74064 2.67394 5.69842C2.64636 5.6562 2.63279 5.60637 2.63514 5.556C2.63514 5.3736 2.78394 5.172 2.87994 5.112L2.92794 7.008V7.0104Z" fill="#FFEC2D"/>
<path d="M2.92794 8.46958C2.92794 7.98238 2.49114 7.73278 2.14794 7.73278C1.68714 7.73278 1.43994 8.00878 1.43994 8.37118C1.43994 8.57518 1.47834 8.70478 1.57194 8.89918L2.63274 11.1C2.67117 11.1926 2.6876 11.2928 2.68074 11.3928C2.68074 11.5896 2.48874 11.7504 2.28954 11.7528C2.10714 11.76 1.90554 11.5848 1.90554 11.3856C1.90554 11.1432 2.03274 11.0352 2.16234 11.0352C2.32074 11.0352 2.38314 11.1 2.38314 11.2128C2.38314 11.2896 2.34714 11.3232 2.29194 11.3232C2.15514 11.3232 2.19594 11.1408 2.19594 11.1408C2.17788 11.1441 2.16077 11.1514 2.14585 11.1621C2.13093 11.1728 2.11856 11.1867 2.10962 11.2028C2.10068 11.2188 2.09539 11.2366 2.09413 11.255C2.09287 11.2733 2.09568 11.2917 2.10234 11.3088C2.05097 11.3203 2.00468 11.3481 1.97034 11.388C2.00634 11.424 2.04954 11.4504 2.10234 11.46C2.07114 11.5656 2.11434 11.616 2.20554 11.64C2.18913 11.6039 2.18492 11.5635 2.19354 11.5248C2.33754 11.568 2.56074 11.5008 2.56074 11.2512C2.56074 11.0016 2.38794 10.7928 2.06394 10.8432C2.14074 10.8072 2.17914 10.7328 2.18874 10.6488C2.12874 10.6728 2.06394 10.6728 2.06394 10.6728C2.10234 10.608 2.15514 10.5528 2.15274 10.4184C2.09274 10.4472 2.03514 10.4976 1.96074 10.4664C2.08074 10.2264 1.93194 9.89998 1.55274 9.82318C1.69194 9.98638 1.75914 10.1592 1.75914 10.3344C1.75914 10.8984 1.60314 10.992 1.60314 11.3856C1.60561 11.4769 1.62975 11.5663 1.67356 11.6464C1.71738 11.7265 1.77962 11.795 1.85514 11.8464V11.8392C1.8087 11.8487 1.7648 11.868 1.72633 11.8957C1.68786 11.9234 1.65569 11.9589 1.63194 12C1.8993 12.0737 2.18193 12.0712 2.44794 11.9928C2.53692 11.9802 2.62193 11.9478 2.69671 11.8979C2.77148 11.8481 2.8341 11.7821 2.87994 11.7048C2.92786 11.5954 2.9526 11.4774 2.9526 11.358C2.9526 11.2386 2.92786 11.1205 2.87994 11.0112C2.72874 10.6992 2.02314 9.19678 1.80234 8.72638C1.75434 8.62558 1.72794 8.51998 1.72794 8.40478C1.72794 8.11678 1.99194 8.01598 2.14074 8.01598C2.32074 8.01598 2.50554 8.15278 2.50554 8.32318C2.50554 8.43118 2.44554 8.49838 2.36154 8.49838C2.15754 8.49838 2.16954 8.32558 2.21034 8.21518C2.08314 8.27278 2.01114 8.37358 2.03034 8.47918C1.95159 8.4924 1.88012 8.53324 1.82874 8.59438C1.87674 8.65678 1.93914 8.70478 2.03034 8.70718C1.98954 8.87278 2.10234 8.94238 2.21034 8.98078C2.17674 8.86078 2.15274 8.71918 2.36154 8.71918C2.51274 8.71918 2.63034 8.69518 2.69994 8.59438L2.71674 9.24238C2.72634 9.43678 2.45754 9.43438 2.28474 9.37438C2.34954 9.59758 2.48154 9.71998 2.78874 9.68878C2.74168 9.70688 2.70151 9.73934 2.67394 9.78156C2.64636 9.82378 2.63279 9.87361 2.63514 9.92398C2.63514 10.1064 2.78394 10.308 2.87994 10.368L2.92794 8.47198V8.46958Z" fill="#FFEC2D"/>
<path d="M2.87971 1.75195C2.87971 1.75195 3.11011 1.55515 3.18931 1.65355C3.31411 1.80955 2.80051 2.58955 2.80051 2.86315C2.80051 3.31435 3.10291 3.43675 3.47251 3.49915C3.72211 3.54235 4.12771 3.48235 4.12771 3.48235C4.05091 3.37915 4.00051 3.34795 3.87331 3.34075C4.01731 3.26875 4.16131 3.10555 4.16131 2.85355C4.16131 2.46715 4.00291 2.30635 4.00291 1.86955C4.00291 1.63195 4.19971 1.31995 4.19971 1.31995C3.84931 1.35595 3.67651 1.67995 3.77491 1.93915C3.7479 1.94452 3.71998 1.94317 3.69361 1.93522C3.66725 1.92727 3.64324 1.91296 3.62371 1.89355C3.59971 1.96555 3.63811 2.04955 3.69331 2.12155C3.65011 2.14555 3.61651 2.13115 3.54931 2.11675C3.55411 2.18875 3.59731 2.27035 3.70771 2.34475C3.39091 2.26315 3.19891 2.48155 3.19891 2.71195C3.19891 2.88715 3.31891 3.01195 3.43891 3.01195C3.47731 3.01195 3.53491 2.99515 3.56611 2.97115C3.59011 3.01915 3.57571 3.08395 3.55411 3.13195C3.64051 3.10795 3.69811 3.05515 3.65731 2.94715C3.72451 2.94235 3.77731 2.91835 3.81331 2.87515C3.77731 2.82715 3.72211 2.80315 3.65731 2.80315C3.70531 2.70235 3.65011 2.64715 3.57091 2.60155C3.57091 2.60155 3.62131 2.80315 3.49411 2.80315C3.43651 2.80315 3.38371 2.78635 3.38371 2.69995C3.38371 2.62555 3.44851 2.52235 3.59971 2.52955C3.74851 2.53675 3.87091 2.63275 3.87091 2.87275C3.87091 3.09355 3.69091 3.20395 3.45571 3.20875C3.24451 3.21835 3.08371 3.10315 3.08371 2.88475C3.08371 2.59195 3.50371 1.92955 3.50371 1.67035C3.50371 1.47595 3.33091 1.36555 3.15811 1.36555C2.93731 1.36555 2.75011 1.58635 2.75011 1.58635L2.87971 1.74955V1.75195Z" fill="#FFEC2D"/>
<path d="M2.83182 7.0104C2.83182 7.4976 3.26862 7.7472 3.61182 7.7472C4.07262 7.7472 4.31982 7.4712 4.31982 7.1088C4.31982 6.9048 4.28142 6.7752 4.18782 6.5808L3.12702 4.38C3.08859 4.28743 3.07216 4.1872 3.07902 4.0872C3.07902 3.8904 3.27102 3.7296 3.47022 3.7272C3.65262 3.72 3.85422 3.8952 3.85422 4.0944C3.85422 4.3368 3.72702 4.4448 3.59742 4.4448C3.43902 4.4448 3.37662 4.38 3.37662 4.2672C3.37662 4.1904 3.41262 4.1568 3.46782 4.1568C3.60462 4.1568 3.56382 4.3392 3.56382 4.3392C3.58189 4.33586 3.59899 4.32857 3.61391 4.31786C3.62884 4.30715 3.64121 4.29327 3.65015 4.27722C3.65909 4.26118 3.66438 4.24335 3.66564 4.22503C3.66689 4.2067 3.66409 4.18832 3.65742 4.1712C3.7088 4.15968 3.75509 4.13191 3.78942 4.092C3.75342 4.056 3.71022 4.0296 3.65742 4.02C3.68862 3.9144 3.64542 3.864 3.55422 3.84C3.57063 3.87608 3.57485 3.91652 3.56622 3.9552C3.42222 3.912 3.19902 3.9792 3.19902 4.2288C3.19902 4.4784 3.37182 4.6872 3.69582 4.6368C3.61902 4.6728 3.58062 4.7472 3.57102 4.8312C3.63102 4.8072 3.69582 4.8072 3.69582 4.8072C3.65742 4.872 3.60462 4.9272 3.60702 5.0616C3.66702 5.0328 3.72462 4.9824 3.79902 5.0136C3.67902 5.2536 3.82782 5.58 4.20702 5.6568C4.06782 5.4936 4.00062 5.3208 4.00062 5.1456C4.00062 4.5816 4.15662 4.488 4.15662 4.0944C4.15415 4.00312 4.13002 3.91373 4.0862 3.83361C4.04239 3.75349 3.98015 3.68493 3.90462 3.6336V3.6408C3.95107 3.63126 3.99497 3.61201 4.03343 3.58429C4.0719 3.55658 4.10407 3.52104 4.12782 3.48C3.86047 3.40631 3.57784 3.40881 3.31182 3.4872C3.22285 3.49979 3.13783 3.53221 3.06306 3.58205C2.98829 3.6319 2.92567 3.69791 2.87982 3.7752C2.83191 3.88454 2.80717 4.00262 2.80717 4.122C2.80717 4.24138 2.83191 4.35946 2.87982 4.4688C3.03102 4.7808 3.73662 6.2832 3.95742 6.7536C4.00542 6.8544 4.03182 6.96 4.03182 7.0752C4.03182 7.3632 3.76782 7.464 3.61902 7.464C3.43902 7.464 3.25422 7.3272 3.25422 7.1568C3.25422 7.0488 3.31422 6.9816 3.39822 6.9816C3.60222 6.9816 3.59022 7.1544 3.54942 7.2648C3.67662 7.2072 3.74862 7.1064 3.72942 7.0008C3.80818 6.98758 3.87965 6.94674 3.93102 6.8856C3.88302 6.8232 3.82062 6.7752 3.72942 6.7728C3.77022 6.6072 3.65742 6.5376 3.54942 6.4992C3.58302 6.6192 3.60702 6.7608 3.39822 6.7608C3.24702 6.7608 3.12942 6.7848 3.05982 6.8856L3.04302 6.2376C3.03342 6.0432 3.30222 6.0456 3.47502 6.1056C3.41022 5.8824 3.27822 5.76 2.97102 5.7912C3.01809 5.7731 3.05826 5.74064 3.08583 5.69842C3.1134 5.6562 3.12698 5.60637 3.12462 5.556C3.12462 5.3736 2.97582 5.172 2.87982 5.112L2.83182 7.008V7.0104Z" fill="#FFEC2D"/>
<path d="M2.83182 8.46958C2.83182 7.98238 3.26862 7.73278 3.61182 7.73278C4.07262 7.73278 4.31982 8.00878 4.31982 8.37118C4.31982 8.57518 4.28142 8.70478 4.18782 8.89918L3.12702 11.1C3.08859 11.1926 3.07216 11.2928 3.07902 11.3928C3.07902 11.5896 3.27102 11.7504 3.47022 11.7528C3.65262 11.76 3.85422 11.5848 3.85422 11.3856C3.85422 11.1432 3.72702 11.0352 3.59742 11.0352C3.43902 11.0352 3.37662 11.1 3.37662 11.2128C3.37662 11.2896 3.41262 11.3232 3.46782 11.3232C3.60462 11.3232 3.56382 11.1408 3.56382 11.1408C3.58189 11.1441 3.59899 11.1514 3.61391 11.1621C3.62884 11.1728 3.64121 11.1867 3.65015 11.2028C3.65909 11.2188 3.66438 11.2366 3.66564 11.255C3.66689 11.2733 3.66409 11.2917 3.65742 11.3088C3.7088 11.3203 3.75509 11.3481 3.78942 11.388C3.75342 11.424 3.71022 11.4504 3.65742 11.46C3.68862 11.5656 3.64542 11.616 3.55422 11.64C3.57063 11.6039 3.57485 11.5635 3.56622 11.5248C3.42222 11.568 3.19902 11.5008 3.19902 11.2512C3.19902 11.0016 3.37182 10.7928 3.69582 10.8432C3.61902 10.8072 3.58062 10.7328 3.57102 10.6488C3.63102 10.6728 3.69582 10.6728 3.69582 10.6728C3.65742 10.608 3.60462 10.5528 3.60702 10.4184C3.66702 10.4472 3.72462 10.4976 3.79902 10.4664C3.67902 10.2264 3.82782 9.89998 4.20702 9.82318C4.06782 9.98638 4.00062 10.1592 4.00062 10.3344C4.00062 10.8984 4.15662 10.992 4.15662 11.3856C4.15415 11.4769 4.13002 11.5663 4.0862 11.6464C4.04239 11.7265 3.98015 11.795 3.90462 11.8464V11.8392C3.95107 11.8487 3.99497 11.868 4.03343 11.8957C4.0719 11.9234 4.10407 11.9589 4.12782 12C3.86047 12.0737 3.57784 12.0712 3.31182 11.9928C3.22285 11.9802 3.13783 11.9478 3.06306 11.8979C2.98829 11.8481 2.92567 11.7821 2.87982 11.7048C2.83191 11.5954 2.80717 11.4774 2.80717 11.358C2.80717 11.2386 2.83191 11.1205 2.87982 11.0112C3.03102 10.6992 3.73662 9.19678 3.95742 8.72638C4.00542 8.62558 4.03182 8.51998 4.03182 8.40478C4.03182 8.11678 3.76782 8.01598 3.61902 8.01598C3.43902 8.01598 3.25422 8.15278 3.25422 8.32318C3.25422 8.43118 3.31422 8.49838 3.39822 8.49838C3.60222 8.49838 3.59022 8.32558 3.54942 8.21518C3.67662 8.27278 3.74862 8.37358 3.72942 8.47918C3.80818 8.4924 3.87965 8.53324 3.93102 8.59438C3.88302 8.65678 3.82062 8.70478 3.72942 8.70718C3.77022 8.87278 3.65742 8.94238 3.54942 8.98078C3.58302 8.86078 3.60702 8.71918 3.39822 8.71918C3.24702 8.71918 3.12942 8.69518 3.05982 8.59438L3.04302 9.24238C3.03342 9.43678 3.30222 9.43438 3.47502 9.37438C3.41022 9.59758 3.27822 9.71998 2.97102 9.68878C3.01809 9.70688 3.05826 9.73934 3.08583 9.78156C3.1134 9.82378 3.12698 9.87361 3.12462 9.92398C3.12462 10.1064 2.97582 10.308 2.87982 10.368L2.83182 8.47198V8.46958Z" fill="#FFEC2D"/>
<path d="M2.88006 22.2479C2.88006 22.2479 2.64966 22.4447 2.57046 22.3463C2.44566 22.1903 2.95926 21.4103 2.95926 21.1367C2.95926 20.6855 2.65686 20.5631 2.28726 20.5007C2.03766 20.4575 1.63206 20.5175 1.63206 20.5175C1.70886 20.6207 1.75926 20.6519 1.88646 20.6591C1.74246 20.7311 1.59846 20.8943 1.59846 21.1463C1.59846 21.5327 1.75686 21.6935 1.75686 22.1303C1.75686 22.3679 1.56006 22.6799 1.56006 22.6799C1.91046 22.6439 2.08326 22.3199 1.98486 22.0607C2.01187 22.0554 2.03978 22.0567 2.06615 22.0647C2.09252 22.0726 2.11652 22.0869 2.13606 22.1063C2.16006 22.0343 2.12166 21.9503 2.06646 21.8783C2.10966 21.8543 2.14326 21.8687 2.21046 21.8831C2.20566 21.8111 2.16246 21.7295 2.05206 21.6551C2.36886 21.7367 2.56086 21.5183 2.56086 21.2879C2.56086 21.1127 2.44086 20.9879 2.32086 20.9879C2.28246 20.9879 2.22486 21.0047 2.19366 21.0287C2.16966 20.9807 2.18406 20.9159 2.20566 20.8679C2.11926 20.8919 2.06166 20.9447 2.10246 21.0527C2.03526 21.0575 1.98246 21.0815 1.94646 21.1247C1.98246 21.1727 2.03766 21.1967 2.10246 21.1967C2.05446 21.2975 2.10966 21.3527 2.18886 21.3983C2.18886 21.3983 2.13846 21.1967 2.26566 21.1967C2.32326 21.1967 2.37606 21.2135 2.37606 21.2999C2.37606 21.3743 2.31126 21.4775 2.16006 21.4703C2.01126 21.4631 1.88886 21.3671 1.88886 21.1271C1.88886 20.9063 2.06886 20.7959 2.30406 20.7911C2.51526 20.7815 2.67606 20.8967 2.67606 21.1151C2.67606 21.4079 2.25606 22.0703 2.25606 22.3295C2.25606 22.5239 2.42886 22.6343 2.60166 22.6343C2.82246 22.6343 3.00966 22.4135 3.00966 22.4135L2.88006 22.2503V22.2479Z" fill="#FFEC2D"/>
<path d="M2.92794 16.9895C2.92794 16.5023 2.49114 16.2527 2.14794 16.2527C1.68714 16.2527 1.43994 16.5287 1.43994 16.8911C1.43994 17.0951 1.47834 17.2247 1.57194 17.4191L2.63274 19.6199C2.67117 19.7124 2.6876 19.8127 2.68074 19.9127C2.68074 20.1095 2.48874 20.2703 2.28954 20.2727C2.10714 20.2799 1.90554 20.1047 1.90554 19.9055C1.90554 19.6631 2.03274 19.5551 2.16234 19.5551C2.32074 19.5551 2.38314 19.6199 2.38314 19.7327C2.38314 19.8095 2.34714 19.8431 2.29194 19.8431C2.15514 19.8431 2.19594 19.6607 2.19594 19.6607C2.17788 19.664 2.16077 19.6713 2.14585 19.682C2.13093 19.6927 2.11856 19.7066 2.10962 19.7227C2.10068 19.7387 2.09539 19.7565 2.09413 19.7749C2.09287 19.7932 2.09568 19.8116 2.10234 19.8287C2.05097 19.8402 2.00468 19.868 1.97034 19.9079C2.00634 19.9439 2.04954 19.9703 2.10234 19.9799C2.07114 20.0855 2.11434 20.1359 2.20554 20.1599C2.18913 20.1238 2.18492 20.0834 2.19354 20.0447C2.33754 20.0879 2.56074 20.0207 2.56074 19.7711C2.56074 19.5215 2.38794 19.3127 2.06394 19.3631C2.14074 19.3271 2.17914 19.2527 2.18874 19.1687C2.12874 19.1927 2.06394 19.1927 2.06394 19.1927C2.10234 19.1279 2.15514 19.0727 2.15274 18.9383C2.09274 18.9671 2.03514 19.0175 1.96074 18.9863C2.08074 18.7463 1.93194 18.4199 1.55274 18.3431C1.69194 18.5063 1.75914 18.6791 1.75914 18.8543C1.75914 19.4183 1.60314 19.5119 1.60314 19.9055C1.60561 19.9968 1.62975 20.0861 1.67356 20.1663C1.71738 20.2464 1.77962 20.3149 1.85514 20.3663V20.3591C1.8087 20.3686 1.7648 20.3879 1.72633 20.4156C1.68786 20.4433 1.65569 20.4788 1.63194 20.5199C1.8993 20.5936 2.18193 20.5911 2.44794 20.5127C2.53692 20.5001 2.62193 20.4677 2.69671 20.4178C2.77148 20.368 2.8341 20.302 2.87994 20.2247C2.92786 20.1153 2.9526 19.9973 2.9526 19.8779C2.9526 19.7585 2.92786 19.6404 2.87994 19.5311C2.72874 19.2191 2.02314 17.7167 1.80234 17.2463C1.75434 17.1455 1.72794 17.0399 1.72794 16.9247C1.72794 16.6367 1.99194 16.5359 2.14074 16.5359C2.32074 16.5359 2.50554 16.6727 2.50554 16.8431C2.50554 16.9511 2.44554 17.0183 2.36154 17.0183C2.15754 17.0183 2.16954 16.8455 2.21034 16.7351C2.08314 16.7927 2.01114 16.8935 2.03034 16.9991C1.95159 17.0123 1.88012 17.0531 1.82874 17.1143C1.87674 17.1767 1.93914 17.2247 2.03034 17.2271C1.98954 17.3927 2.10234 17.4623 2.21034 17.5007C2.17674 17.3807 2.15274 17.2391 2.36154 17.2391C2.51274 17.2391 2.63034 17.2151 2.69994 17.1143L2.71674 17.7623C2.72634 17.9567 2.45754 17.9543 2.28474 17.8943C2.34954 18.1175 2.48154 18.2399 2.78874 18.2087C2.74168 18.2268 2.70151 18.2592 2.67394 18.3015C2.64636 18.3437 2.63279 18.3935 2.63514 18.4439C2.63514 18.6263 2.78394 18.8279 2.87994 18.8879L2.92794 16.9919V16.9895Z" fill="#FFEC2D"/>
<path d="M2.92794 15.5303C2.92794 16.0175 2.49114 16.2671 2.14794 16.2671C1.68714 16.2671 1.43994 15.9911 1.43994 15.6287C1.43994 15.4247 1.47834 15.2951 1.57194 15.1007L2.63274 12.8999C2.67117 12.8073 2.6876 12.7071 2.68074 12.6071C2.68074 12.4103 2.48874 12.2495 2.28954 12.2471C2.10714 12.2399 1.90554 12.4151 1.90554 12.6143C1.90554 12.8567 2.03274 12.9647 2.16234 12.9647C2.32074 12.9647 2.38314 12.8999 2.38314 12.7871C2.38314 12.7103 2.34714 12.6767 2.29194 12.6767C2.15514 12.6767 2.19594 12.8591 2.19594 12.8591C2.17788 12.8558 2.16077 12.8485 2.14585 12.8378C2.13093 12.827 2.11856 12.8132 2.10962 12.7971C2.10068 12.7811 2.09539 12.7633 2.09413 12.7449C2.09287 12.7266 2.09568 12.7082 2.10234 12.6911C2.05097 12.6796 2.00468 12.6518 1.97034 12.6119C2.00634 12.5759 2.04954 12.5495 2.10234 12.5399C2.07114 12.4343 2.11434 12.3839 2.20554 12.3599C2.18913 12.396 2.18492 12.4364 2.19354 12.4751C2.33754 12.4319 2.56074 12.4991 2.56074 12.7487C2.56074 12.9983 2.38794 13.2071 2.06394 13.1567C2.14074 13.1927 2.17914 13.2671 2.18874 13.3511C2.12874 13.3271 2.06394 13.3271 2.06394 13.3271C2.10234 13.3919 2.15514 13.4471 2.15274 13.5815C2.09274 13.5527 2.03514 13.5023 1.96074 13.5335C2.08074 13.7735 1.93194 14.0999 1.55274 14.1767C1.69194 14.0135 1.75914 13.8407 1.75914 13.6655C1.75914 13.1015 1.60314 13.0079 1.60314 12.6143C1.60561 12.523 1.62975 12.4336 1.67356 12.3535C1.71738 12.2734 1.77962 12.2048 1.85514 12.1535V12.1607C1.8087 12.1512 1.7648 12.1319 1.72633 12.1042C1.68786 12.0765 1.65569 12.0409 1.63194 11.9999C1.8993 11.9262 2.18193 11.9287 2.44794 12.0071C2.53692 12.0197 2.62193 12.0521 2.69671 12.102C2.77148 12.1518 2.8341 12.2178 2.87994 12.2951C2.92786 12.4044 2.9526 12.5225 2.9526 12.6419C2.9526 12.7613 2.92786 12.8794 2.87994 12.9887C2.72874 13.3007 2.02314 14.8031 1.80234 15.2735C1.75434 15.3743 1.72794 15.4799 1.72794 15.5951C1.72794 15.8831 1.99194 15.9839 2.14074 15.9839C2.32074 15.9839 2.50554 15.8471 2.50554 15.6767C2.50554 15.5687 2.44554 15.5015 2.36154 15.5015C2.15754 15.5015 2.16954 15.6743 2.21034 15.7847C2.08314 15.7271 2.01114 15.6263 2.03034 15.5207C1.95159 15.5075 1.88012 15.4666 1.82874 15.4055C1.87674 15.3431 1.93914 15.2951 2.03034 15.2927C1.98954 15.1271 2.10234 15.0575 2.21034 15.0191C2.17674 15.1391 2.15274 15.2807 2.36154 15.2807C2.51274 15.2807 2.63034 15.3047 2.69994 15.4055L2.71674 14.7575C2.72634 14.5631 2.45754 14.5655 2.28474 14.6255C2.34954 14.4023 2.48154 14.2799 2.78874 14.3111C2.74168 14.293 2.70151 14.2605 2.67394 14.2183C2.64636 14.1761 2.63279 14.1263 2.63514 14.0759C2.63514 13.8935 2.78394 13.6919 2.87994 13.6319L2.92794 15.5279V15.5303Z" fill="#FFEC2D"/>
<path d="M2.87971 22.2479C2.87971 22.2479 3.11011 22.4447 3.18931 22.3463C3.31411 22.1903 2.80051 21.4103 2.80051 21.1367C2.80051 20.6855 3.10291 20.5631 3.47251 20.5007C3.72211 20.4575 4.12771 20.5175 4.12771 20.5175C4.05091 20.6207 4.00051 20.6519 3.87331 20.6591C4.01731 20.7311 4.16131 20.8943 4.16131 21.1463C4.16131 21.5327 4.00291 21.6935 4.00291 22.1303C4.00291 22.3679 4.19971 22.6799 4.19971 22.6799C3.84931 22.6439 3.67651 22.3199 3.77491 22.0607C3.7479 22.0554 3.71998 22.0567 3.69361 22.0647C3.66725 22.0726 3.64324 22.0869 3.62371 22.1063C3.59971 22.0343 3.63811 21.9503 3.69331 21.8783C3.65011 21.8543 3.61651 21.8687 3.54931 21.8831C3.55411 21.8111 3.59731 21.7295 3.70771 21.6551C3.39091 21.7367 3.19891 21.5183 3.19891 21.2879C3.19891 21.1127 3.31891 20.9879 3.43891 20.9879C3.47731 20.9879 3.53491 21.0047 3.56611 21.0287C3.59011 20.9807 3.57571 20.9159 3.55411 20.8679C3.64051 20.8919 3.69811 20.9447 3.65731 21.0527C3.72451 21.0575 3.77731 21.0815 3.81331 21.1247C3.77731 21.1727 3.72211 21.1967 3.65731 21.1967C3.70531 21.2975 3.65011 21.3527 3.57091 21.3983C3.57091 21.3983 3.62131 21.1967 3.49411 21.1967C3.43651 21.1967 3.38371 21.2135 3.38371 21.2999C3.38371 21.3743 3.44851 21.4775 3.59971 21.4703C3.74851 21.4631 3.87091 21.3671 3.87091 21.1271C3.87091 20.9063 3.69091 20.7959 3.45571 20.7911C3.24451 20.7815 3.08371 20.8967 3.08371 21.1151C3.08371 21.4079 3.50371 22.0703 3.50371 22.3295C3.50371 22.5239 3.33091 22.6343 3.15811 22.6343C2.93731 22.6343 2.75011 22.4135 2.75011 22.4135L2.87971 22.2503V22.2479Z" fill="#FFEC2D"/>
<path d="M2.83182 16.9895C2.83182 16.5023 3.26862 16.2527 3.61182 16.2527C4.07262 16.2527 4.31982 16.5287 4.31982 16.8911C4.31982 17.0951 4.28142 17.2247 4.18782 17.4191L3.12702 19.6199C3.08859 19.7124 3.07216 19.8127 3.07902 19.9127C3.07902 20.1095 3.27102 20.2703 3.47022 20.2727C3.65262 20.2799 3.85422 20.1047 3.85422 19.9055C3.85422 19.6631 3.72702 19.5551 3.59742 19.5551C3.43902 19.5551 3.37662 19.6199 3.37662 19.7327C3.37662 19.8095 3.41262 19.8431 3.46782 19.8431C3.60462 19.8431 3.56382 19.6607 3.56382 19.6607C3.58189 19.664 3.59899 19.6713 3.61391 19.682C3.62884 19.6927 3.64121 19.7066 3.65015 19.7227C3.65909 19.7387 3.66438 19.7565 3.66564 19.7749C3.66689 19.7932 3.66409 19.8116 3.65742 19.8287C3.7088 19.8402 3.75509 19.868 3.78942 19.9079C3.75342 19.9439 3.71022 19.9703 3.65742 19.9799C3.68862 20.0855 3.64542 20.1359 3.55422 20.1599C3.57063 20.1238 3.57485 20.0834 3.56622 20.0447C3.42222 20.0879 3.19902 20.0207 3.19902 19.7711C3.19902 19.5215 3.37182 19.3127 3.69582 19.3631C3.61902 19.3271 3.58062 19.2527 3.57102 19.1687C3.63102 19.1927 3.69582 19.1927 3.69582 19.1927C3.65742 19.1279 3.60462 19.0727 3.60702 18.9383C3.66702 18.9671 3.72462 19.0175 3.79902 18.9863C3.67902 18.7463 3.82782 18.4199 4.20702 18.3431C4.06782 18.5063 4.00062 18.6791 4.00062 18.8543C4.00062 19.4183 4.15662 19.5119 4.15662 19.9055C4.15415 19.9968 4.13002 20.0861 4.0862 20.1663C4.04239 20.2464 3.98015 20.3149 3.90462 20.3663V20.3591C3.95107 20.3686 3.99497 20.3879 4.03343 20.4156C4.0719 20.4433 4.10407 20.4788 4.12782 20.5199C3.86047 20.5936 3.57784 20.5911 3.31182 20.5127C3.22285 20.5001 3.13783 20.4677 3.06306 20.4178C2.98829 20.368 2.92567 20.302 2.87982 20.2247C2.83191 20.1153 2.80717 19.9973 2.80717 19.8779C2.80717 19.7585 2.83191 19.6404 2.87982 19.5311C3.03102 19.2191 3.73662 17.7167 3.95742 17.2463C4.00542 17.1455 4.03182 17.0399 4.03182 16.9247C4.03182 16.6367 3.76782 16.5359 3.61902 16.5359C3.43902 16.5359 3.25422 16.6727 3.25422 16.8431C3.25422 16.9511 3.31422 17.0183 3.39822 17.0183C3.60222 17.0183 3.59022 16.8455 3.54942 16.7351C3.67662 16.7927 3.74862 16.8935 3.72942 16.9991C3.80818 17.0123 3.87965 17.0531 3.93102 17.1143C3.88302 17.1767 3.82062 17.2247 3.72942 17.2271C3.77022 17.3927 3.65742 17.4623 3.54942 17.5007C3.58302 17.3807 3.60702 17.2391 3.39822 17.2391C3.24702 17.2391 3.12942 17.2151 3.05982 17.1143L3.04302 17.7623C3.03342 17.9567 3.30222 17.9543 3.47502 17.8943C3.41022 18.1175 3.27822 18.2399 2.97102 18.2087C3.01809 18.2268 3.05826 18.2592 3.08583 18.3015C3.1134 18.3437 3.12698 18.3935 3.12462 18.4439C3.12462 18.6263 2.97582 18.8279 2.87982 18.8879L2.83182 16.9919V16.9895Z" fill="#FFEC2D"/>
<path d="M2.83182 15.5303C2.83182 16.0175 3.26862 16.2671 3.61182 16.2671C4.07262 16.2671 4.31982 15.9911 4.31982 15.6287C4.31982 15.4247 4.28142 15.2951 4.18782 15.1007L3.12702 12.8999C3.08859 12.8073 3.07216 12.7071 3.07902 12.6071C3.07902 12.4103 3.27102 12.2495 3.47022 12.2471C3.65262 12.2399 3.85422 12.4151 3.85422 12.6143C3.85422 12.8567 3.72702 12.9647 3.59742 12.9647C3.43902 12.9647 3.37662 12.8999 3.37662 12.7871C3.37662 12.7103 3.41262 12.6767 3.46782 12.6767C3.60462 12.6767 3.56382 12.8591 3.56382 12.8591C3.58189 12.8558 3.59899 12.8485 3.61391 12.8378C3.62884 12.827 3.64121 12.8132 3.65015 12.7971C3.65909 12.7811 3.66438 12.7633 3.66564 12.7449C3.66689 12.7266 3.66409 12.7082 3.65742 12.6911C3.7088 12.6796 3.75509 12.6518 3.78942 12.6119C3.75342 12.5759 3.71022 12.5495 3.65742 12.5399C3.68862 12.4343 3.64542 12.3839 3.55422 12.3599C3.57063 12.396 3.57485 12.4364 3.56622 12.4751C3.42222 12.4319 3.19902 12.4991 3.19902 12.7487C3.19902 12.9983 3.37182 13.2071 3.69582 13.1567C3.61902 13.1927 3.58062 13.2671 3.57102 13.3511C3.63102 13.3271 3.69582 13.3271 3.69582 13.3271C3.65742 13.3919 3.60462 13.4471 3.60702 13.5815C3.66702 13.5527 3.72462 13.5023 3.79902 13.5335C3.67902 13.7735 3.82782 14.0999 4.20702 14.1767C4.06782 14.0135 4.00062 13.8407 4.00062 13.6655C4.00062 13.1015 4.15662 13.0079 4.15662 12.6143C4.15415 12.523 4.13002 12.4336 4.0862 12.3535C4.04239 12.2734 3.98015 12.2048 3.90462 12.1535V12.1607C3.95107 12.1512 3.99497 12.1319 4.03343 12.1042C4.0719 12.0765 4.10407 12.0409 4.12782 11.9999C3.86047 11.9262 3.57784 11.9287 3.31182 12.0071C3.22285 12.0197 3.13783 12.0521 3.06306 12.102C2.98829 12.1518 2.92567 12.2178 2.87982 12.2951C2.83191 12.4044 2.80717 12.5225 2.80717 12.6419C2.80717 12.7613 2.83191 12.8794 2.87982 12.9887C3.03102 13.3007 3.73662 14.8031 3.95742 15.2735C4.00542 15.3743 4.03182 15.4799 4.03182 15.5951C4.03182 15.8831 3.76782 15.9839 3.61902 15.9839C3.43902 15.9839 3.25422 15.8471 3.25422 15.6767C3.25422 15.5687 3.31422 15.5015 3.39822 15.5015C3.60222 15.5015 3.59022 15.6743 3.54942 15.7847C3.67662 15.7271 3.74862 15.6263 3.72942 15.5207C3.80818 15.5075 3.87965 15.4666 3.93102 15.4055C3.88302 15.3431 3.82062 15.2951 3.72942 15.2927C3.77022 15.1271 3.65742 15.0575 3.54942 15.0191C3.58302 15.1391 3.60702 15.2807 3.39822 15.2807C3.24702 15.2807 3.12942 15.3047 3.05982 15.4055L3.04302 14.7575C3.03342 14.5631 3.30222 14.5655 3.47502 14.6255C3.41022 14.4023 3.27822 14.2799 2.97102 14.3111C3.01809 14.293 3.05826 14.2605 3.08583 14.2183C3.1134 14.1761 3.12698 14.1263 3.12462 14.0759C3.12462 13.8935 2.97582 13.6919 2.87982 13.6319L2.83182 15.5279V15.5303Z" fill="#FFEC2D"/>
</g>
<defs>
<clipPath id="clip0_992_11522">
<rect width="32" height="24" rx="4" fill="white"/>
</clipPath>
</defs>
</svg>
