<svg width="20" height="20" viewBox="0 0 20 20" fill="none" xmlns="http://www.w3.org/2000/svg">
<path d="M13.2915 7.88716V12.9464C13.2915 13.4066 13.6646 13.7797 14.1248 13.7797C14.585 13.7797 14.9581 13.4066 14.9581 12.9464L14.9581 5.45867C14.9581 5.22855 14.7716 5.042 14.5415 5.042L14.1288 5.042C14.1261 5.04199 14.1235 5.04199 14.1208 5.042L7.05372 5.042C6.59349 5.042 6.22039 5.4151 6.22039 5.87534C6.22039 6.33557 6.59349 6.70867 7.05372 6.70867H12.1129L5.28595 13.5356C4.96051 13.8611 4.96051 14.3887 5.28595 14.7142C5.61138 15.0396 6.13902 15.0396 6.46446 14.7142L13.2915 7.88716Z" fill="#858D9D"/>
</svg>
