<svg width="20" height="20" viewBox="0 0 20 20" fill="none" xmlns="http://www.w3.org/2000/svg">
<path fill-rule="evenodd" clip-rule="evenodd" d="M11.7902 8.31006L9.99999 4.6826L8.20973 8.31006L4.20659 8.89175L7.10329 11.7153L6.41947 15.7023L9.99999 13.8199L13.5805 15.7023L12.8967 11.7153L15.7934 8.89175L11.7902 8.31006ZM7.10295 6.78672L2.29595 7.48521C1.61244 7.58453 1.33951 8.42451 1.83411 8.90662L5.31249 12.2972L4.49135 17.0848C4.37459 17.7655 5.08912 18.2847 5.70048 17.9633L9.99999 15.7029L14.2995 17.9633C14.9108 18.2847 15.6254 17.7655 15.5086 17.0848L14.6875 12.2972L18.1659 8.90662C18.6605 8.42451 18.3875 7.58453 17.704 7.48521L12.897 6.78672L10.7473 2.43084C10.4416 1.81147 9.55838 1.81147 9.25271 2.43084L7.10295 6.78672Z" fill="#333843"/>
</svg>
