<svg width="20" height="20" viewBox="0 0 20 20" fill="none" xmlns="http://www.w3.org/2000/svg">
<path fill-rule="evenodd" clip-rule="evenodd" d="M14.1666 12.1599V13.3334C14.1666 14.7141 13.0473 15.8334 11.6666 15.8334H4.16663C2.78591 15.8334 1.66663 14.7141 1.66663 13.3334V6.66675C1.66663 5.28604 2.78591 4.16675 4.16663 4.16675H11.6666C13.0473 4.16675 14.1666 5.28604 14.1666 6.66675V7.24497L16.2277 5.31004C17.0259 4.56079 18.3333 5.12668 18.3333 6.22138V13.4734C18.3333 14.6108 16.9376 15.1571 16.1655 14.3219L14.1666 12.1599ZM4.16663 5.83341H11.6666C12.1269 5.83341 12.5 6.20651 12.5 6.66675V13.3334C12.5 13.7937 12.1269 14.1667 11.6666 14.1667H4.16663C3.70639 14.1667 3.33329 13.7937 3.33329 13.3334V6.66675C3.33329 6.20651 3.70639 5.83341 4.16663 5.83341ZM14.1666 9.70482L16.6666 12.4089V7.18404L14.1666 9.53098V9.70482Z" fill="#333843"/>
</svg>
